# xmcd
#
# Track frame offsets:
# 150
# 21637
# 47255
# 63642
# 91310
# 122377
# 146285
# 162180
# 181982
# 204162
# 221877
# 246970
# 272830
#
# Disc length: 4004 seconds
#
#
# Revision: 0
# Processed by: cddbd v1.4PL0 Copyright (c) Steve Scherf et al.
# Submitted via: FreeRIP 2.30 
#
DISCID=b70fa20d
DTITLE=maybe august - a fine how do you do
DYEAR=2003
DGENRE=Blues
TTITLE0=another life
TTITLE1=restless waters
TTITLE2=jessica
TTITLE3=pretty ones
TTITLE4=lay down
TTITLE5=bell tower
TTITLE6=burning out
TTITLE7=gotta run
TTITLE8=wish list
TTITLE9=my own little world
TTITLE10=big sky
TTITLE11=say something
TTITLE12=dear carissa
EXTD=
EXTT0=
EXTT1=
EXTT2=
EXTT3=
EXTT4=
EXTT5=
EXTT6=
EXTT7=
EXTT8=
EXTT9=
EXTT10=
EXTT11=
EXTT12=
PLAYORDER=
